<svg viewBox="0 0 200 200" xmlns="http://www.w3.org/2000/svg">
  <!-- Main blob body -->
  <path d="M60 100 Q50 60 90 60 Q120 40 140 70 Q170 80 150 120 Q130 150 90 150 Q60 140 60 100"
        fill="#90DBF4"/>
  <!-- Blob arms/nubs -->
  <ellipse cx="50" cy="110" rx="12" ry="8" fill="#7BC4DC"/>
  <ellipse cx="160" cy="100" rx="12" ry="8" fill="#7BC4DC"/>
  <!-- Corporate tie -->
  <polygon points="105,125 110,125 115,160 105,155 95,160 100,125" fill="#1E3A8A"/>
  <rect x="98" y="115" width="14" height="12" rx="2" fill="#1E3A8A"/>
  <!-- Eyes with detail -->
  <ellipse cx="85" cy="80" rx="10" ry="12" fill="white"/>
  <ellipse cx="120" cy="80" rx="10" ry="12" fill="white"/>
  <circle cx="85" cy="82" r="6" fill="black"/>
  <circle cx="120" cy="82" r="6" fill="black"/>
  <circle cx="87" cy="79" r="2.5" fill="white"/>
  <circle cx="122" cy="79" r="2.5" fill="white"/>
  <!-- Corporate glasses -->
  <rect x="72" y="75" width="20" height="15" rx="3" fill="none" stroke="#333" stroke-width="2"/>
  <rect x="113" y="75" width="20" height="15" rx="3" fill="none" stroke="#333" stroke-width="2"/>
  <line x1="92" y1="82" x2="113" y2="82" stroke="#333" stroke-width="2"/>
  <!-- Happy smile -->
  <path d="M90 105 Q105 117 120 105" stroke="black" stroke-width="3" fill="none" stroke-linecap="round"/>
  <!-- Blob highlight for dimension -->
  <ellipse cx="110" cy="65" rx="15" ry="10" fill="white" opacity="0.3"/>
</svg>

