<svg viewBox="0 0 200 200" xmlns="http://www.w3.org/2000/svg">
  <circle cx="100" cy="110" r="45" fill="#B5179E"/>
  <!-- Pointy ears -->
  <polygon points="60,105 50,95 55,115" fill="#B5179E"/>
  <polygon points="140,105 150,95 145,115" fill="#B5179E"/>
  <!-- Eyes -->
  <ellipse cx="85" cy="105" rx="8" ry="12" fill="white"/>
  <ellipse cx="115" cy="105" rx="8" ry="12" fill="white"/>
  <circle cx="85" cy="108" r="5" fill="#3A0CA3"/>
  <circle cx="115" cy="108" r="5" fill="#3A0CA3"/>
  <circle cx="87" cy="106" r="2" fill="white"/>
  <circle cx="117" cy="106" r="2" fill="white"/>
  <!-- Eyebrows -->
  <path d="M 77 95 Q 85 92 93 95" stroke="#560BAD" stroke-width="2" fill="none"/>
  <path d="M 107 95 Q 115 92 123 95" stroke="#560BAD" stroke-width="2" fill="none"/>
  <!-- Mischievous grin -->
  <path d="M 85 120 Q 100 132 115 120" stroke="#560BAD" stroke-width="2.5" fill="none" stroke-linecap="round"/>
  <!-- Small fangs -->
  <polygon points="92,125 95,130 98,125" fill="white"/>
  <polygon points="102,125 105,130 108,125" fill="white"/>
  <polygon points="100,40 120,80 80,80" fill="#7209B7"/>
  <polygon points="100,30 125,70 75,70" fill="#F72585"/>
</svg>

