<svg viewBox="0 0 200 200" xmlns="http://www.w3.org/2000/svg">
  <circle cx="100" cy="90" r="40" fill="#FF70A6"/>
  <!-- Eyes -->
  <ellipse cx="85" cy="85" rx="8" ry="10" fill="white"/>
  <ellipse cx="115" cy="85" rx="8" ry="10" fill="white"/>
  <circle cx="85" cy="88" r="5" fill="#222"/>
  <circle cx="115" cy="88" r="5" fill="#222"/>
  <circle cx="87" cy="84" r="2" fill="white"/>
  <circle cx="117" cy="84" r="2" fill="white"/>

  <!-- Smile -->
  <path d="M85 105 Q100 120 115 105" stroke="black" stroke-width="3" fill="none"/>
  <!-- Head highlight -->
  <ellipse cx="110" cy="70" rx="12" ry="8" fill="white" opacity="0.35"/>
  <!-- Arms with suction details -->
  <path d="M60 130 Q40 160 70 170" stroke="#FF70A6" stroke-width="8" fill="none"/>
  <path d="M80 130 Q70 170 100 170" stroke="#FF70A6" stroke-width="8" fill="none"/>
  <path d="M120 130 Q130 170 100 170" stroke="#FF70A6" stroke-width="8" fill="none"/>
  <path d="M140 130 Q160 160 130 170" stroke="#FF70A6" stroke-width="8" fill="none"/>
  <circle cx="66" cy="160" r="3" fill="#F8B1C8"/>
  <circle cx="76" cy="166" r="3" fill="#F8B1C8"/>
  <circle cx="88" cy="164" r="3" fill="#F8B1C8"/>
  <circle cx="112" cy="164" r="3" fill="#F8B1C8"/>
  <circle cx="124" cy="166" r="3" fill="#F8B1C8"/>
  <circle cx="134" cy="160" r="3" fill="#F8B1C8"/>
</svg>
