<svg viewBox="0 0 200 200" xmlns="http://www.w3.org/2000/svg">
  <style>
    .m-bob { animation: bob 3.4s ease-in-out infinite; transform-box: fill-box; transform-origin: center; }
    .m-eye { animation: blink 5s ease-in-out infinite; transform-box: fill-box; transform-origin: center; }
    .m-whiskers { animation: whisk 1.8s ease-in-out infinite; transform-box: fill-box; transform-origin: center; }
    .m-coin { animation: coinPulse 1.7s ease-in-out infinite; transform-box: fill-box; transform-origin: center; }
    @keyframes bob { 0%,100% { transform: translateY(0); } 50% { transform: translateY(-2px); } }
    @keyframes blink { 0%,47%,53%,100% { transform: scaleY(1); } 50% { transform: scaleY(0.1); } }
    @keyframes whisk { 0%,100% { transform: rotate(0deg); } 50% { transform: rotate(2deg); } }
    @keyframes coinPulse { 0%,100% { transform: scale(1); } 50% { transform: scale(1.07); } }
  </style>
  <g class="m-bob">
    <circle cx="100" cy="110" r="50" fill="#6C757D"/>
    <ellipse rx="20" ry="15" cx="85" cy="100" fill="black"/>
    <ellipse rx="20" ry="15" cx="115" cy="100" fill="black"/>
    <g class="m-eye">
      <circle cx="85" cy="100" r="6" fill="white"/>
      <circle cx="115" cy="100" r="6" fill="white"/>
      <circle cx="115" cy="100" r="4" fill="black"/>
      <circle cx="85" cy="100" r="4" fill="black"/>
    </g>
    <g class="m-whiskers">
      <rect x="100" y="129" width="25" height="1.5" fill="#333" transform="rotate(-20 100 130)"/>
      <rect x="100" y="129" width="28" height="1.5" fill="#333" transform="rotate(-10 100 130)"/>
      <rect x="100" y="129" width="26" height="1.5" fill="#333" transform="rotate(0 100 130)"/>
      <rect x="75" y="129" width="25" height="1.5" fill="#333" transform="rotate(20 100 130)"/>
      <rect x="72" y="129" width="28" height="1.5" fill="#333" transform="rotate(10 100 130)"/>
      <rect x="74" y="129" width="26" height="1.5" fill="#333" transform="rotate(0 100 130)"/>
    </g>
    <circle cx="100" cy="130" r="4" fill="black"/>
    <g class="m-coin">
      <circle cx="100" cy="60" r="20" fill="#F77F00"/>
      <text x="95" y="65" font-size="16" fill="white">$</text>
    </g>
  </g>
</svg>
