<svg viewBox="0 0 200 200" xmlns="http://www.w3.org/2000/svg">
  <circle cx="100" cy="110" r="50" fill="#6C757D"/>
  <ellipse rx="20" ry="15" cx="85" cy="100" fill="black"/>
  <ellipse rx="20" ry="15" cx="115" cy="100" fill="black"/>
  <circle cx="85" cy="100" r="6" fill="white"/>
  <circle cx="115" cy="100" r="6" fill="white"/>
  <circle cx="115" cy="100" r="4" fill="black"/>
  <circle cx="85" cy="100" r="4" fill="black"/>
  <!-- Whiskers - left side -->
  <rect x="100" y="129" width="25" height="1.5" fill="#333" transform="rotate(-20 100 130)"/>
  <rect x="100" y="129" width="28" height="1.5" fill="#333" transform="rotate(-10 100 130)"/>
  <rect x="100" y="129" width="26" height="1.5" fill="#333" transform="rotate(0 100 130)"/>
  <!-- Whiskers - right side -->
  <rect x="75" y="129" width="25" height="1.5" fill="#333" transform="rotate(20 100 130)"/>
  <rect x="72" y="129" width="28" height="1.5" fill="#333" transform="rotate(10 100 130)"/>
  <rect x="74" y="129" width="26" height="1.5" fill="#333" transform="rotate(0 100 130)"/>
  <circle cx="100" cy="130" r="4" fill="black"/>
  <circle cx="100" cy="60" r="20" fill="#F77F00"/>
  <text x="95" y="65" font-size="16" fill="white">$</text>
</svg>

