<svg viewBox="0 0 200 200" xmlns="http://www.w3.org/2000/svg">
  <circle cx="100" cy="110" r="50" fill="#9D4EDD"/>
  <!-- Mane -->
  <path d="M70 85 Q85 60 100 80 Q115 60 130 85" fill="#C77DFF"/>
  <path d="M70 95 Q85 70 100 90 Q115 70 130 95" fill="#E0AAFF"/>
  <!-- Horn -->
  <polygon points="100,40 110,80 90,80" fill="#FFD166"/>
  <line x1="100" y1="44" x2="104" y2="78" stroke="#F4A261" stroke-width="2"/>
  <line x1="96" y1="52" x2="104" y2="60" stroke="#F4A261" stroke-width="2"/>
  <!-- Eyes -->
  <ellipse cx="85" cy="100" rx="8" ry="10" fill="white"/>
  <ellipse cx="115" cy="100" rx="8" ry="10" fill="white"/>
  <circle cx="85" cy="102" r="5" fill="#333"/>
  <circle cx="115" cy="102" r="5" fill="#333"/>
  <circle cx="87" cy="99" r="2" fill="white"/>
  <circle cx="117" cy="99" r="2" fill="white"/>
  <!-- Smile -->
  <path d="M85 125 Q100 140 115 125" stroke="white" stroke-width="4" fill="none" stroke-linecap="round"/>
  <!-- Blush -->
  <circle cx="75" cy="115" r="5" fill="#FFAFCC" opacity="0.7"/>
  <circle cx="125" cy="115" r="5" fill="#FFAFCC" opacity="0.7"/>
  <!-- Founder crown -->
  <rect x="85" y="70" width="30" height="8" rx="3" fill="#FFD166"/>
  <circle cx="92" cy="68" r="3" fill="#F4A261"/>
  <circle cx="108" cy="68" r="3" fill="#F4A261"/>
</svg>

