<svg viewBox="0 0 200 200" xmlns="http://www.w3.org/2000/svg">
  <circle cx="100" cy="110" r="70" fill="#6A5ACD"/>
  <!-- Eyes -->
  <circle cx="75" cy="90" r="10" fill="white"/>
  <circle cx="125" cy="90" r="10" fill="white"/>
  <circle cx="75" cy="90" r="5" fill="#111"/>
  <circle cx="125" cy="90" r="5" fill="#111"/>
  <circle cx="77" cy="87" r="2" fill="white"/>
  <circle cx="127" cy="87" r="2" fill="white"/>
  <!-- Gold monocle -->
  <circle cx="125" cy="90" r="15" fill="none" stroke="#D4AF37" stroke-width="3"/>
  <circle cx="125" cy="90" r="12" fill="none" stroke="#F1D37A" stroke-width="1"/>
  <line x1="137" y1="102" x2="148" y2="118" stroke="#D4AF37" stroke-width="2"/>
  <circle cx="148" cy="118" r="3" fill="#D4AF37"/>
  <ellipse cx="100" cy="115" rx="25" ry="20" fill="#836FFF"/>
  <!-- Top hat -->
  <rect x="70" y="35" width="60" height="10" rx="3" fill="#1C1C1C"/>
  <rect x="82" y="20" width="36" height="20" rx="3" fill="#2F2F2F"/>
  <rect x="82" y="30" width="36" height="6" fill="#FF6B6B"/>
  <!-- Nose -->
  <circle cx="107.5" cy="118" r="5" fill="#2F2F2F"/>
  <circle cx="92.5" cy="118" r="5" fill="#2F2F2F"/>
  <!-- Whiskers -->
  <line x1="70" y1="115" x2="35" y2="105" stroke="#2F2F2F" stroke-width="3"/>
  <line x1="70" y1="120" x2="32" y2="120" stroke="#2F2F2F" stroke-width="3"/>
  <line x1="70" y1="125" x2="35" y2="135" stroke="#2F2F2F" stroke-width="3"/>
  <line x1="130" y1="115" x2="165" y2="105" stroke="#2F2F2F" stroke-width="3"/>
  <line x1="130" y1="120" x2="168" y2="120" stroke="#2F2F2F" stroke-width="3"/>
  <line x1="130" y1="125" x2="165" y2="135" stroke="#2F2F2F" stroke-width="3"/>

  <!-- Mouth and tusks -->
  <rect x="75" y="130" width="15" height="45" rx="5" fill="white"/>
  <rect x="110" y="130" width="15" height="45" rx="5" fill="white"/>
  <line x1="82.5" y1="134" x2="82.5" y2="170" stroke="#E0E0E0" stroke-width="2"/>
  <line x1="117.5" y1="134" x2="117.5" y2="170" stroke="#E0E0E0" stroke-width="2"/>
</svg>

