<svg viewBox="0 0 200 200" xmlns="http://www.w3.org/2000/svg">
  <style>
    .m-bob { animation: walrusBob 3.4s ease-in-out infinite; transform-box: fill-box; transform-origin: center; }
    .m-eye { animation: blink 5s ease-in-out infinite; transform-box: fill-box; transform-origin: center; }
    .m-whiskers { animation: whiskerWiggle 2.6s ease-in-out infinite; transform-box: fill-box; transform-origin: center; }
    .m-monocle { animation: monocleSwing 2.4s ease-in-out infinite; transform-box: fill-box; transform-origin: 125px 90px; }
    @keyframes walrusBob { 0%,100% { transform: translateY(0); } 50% { transform: translateY(-2px); } }
    @keyframes blink { 0%,45%,51%,100% { transform: scaleY(1); } 48% { transform: scaleY(0.1); } }
    @keyframes whiskerWiggle { 0%,100% { transform: rotate(0deg); } 50% { transform: rotate(2deg); } }
    @keyframes monocleSwing { 0%,100% { transform: rotate(0deg); } 50% { transform: rotate(6deg); } }
  </style>
  <g class="m-bob">
    <circle cx="100" cy="110" r="70" fill="#6A5ACD"/>
    <g class="m-eye">
      <circle cx="75" cy="90" r="10" fill="white"/>
      <circle cx="125" cy="90" r="10" fill="white"/>
      <circle cx="75" cy="90" r="5" fill="#111"/>
      <circle cx="125" cy="90" r="5" fill="#111"/>
      <circle cx="77" cy="87" r="2" fill="white"/>
      <circle cx="127" cy="87" r="2" fill="white"/>
    </g>
    <g class="m-monocle">
      <circle cx="125" cy="90" r="15" fill="none" stroke="#D4AF37" stroke-width="3"/>
      <circle cx="125" cy="90" r="12" fill="none" stroke="#F1D37A" stroke-width="1"/>
      <line x1="137" y1="102" x2="148" y2="118" stroke="#D4AF37" stroke-width="2"/>
      <circle cx="148" cy="118" r="3" fill="#D4AF37"/>
    </g>
    <ellipse cx="100" cy="115" rx="25" ry="20" fill="#836FFF"/>
    <rect x="70" y="35" width="60" height="10" rx="3" fill="#1C1C1C"/>
    <rect x="82" y="20" width="36" height="20" rx="3" fill="#2F2F2F"/>
    <rect x="82" y="30" width="36" height="6" fill="#FF6B6B"/>
    <circle cx="107.5" cy="118" r="5" fill="#2F2F2F"/>
    <circle cx="92.5" cy="118" r="5" fill="#2F2F2F"/>
    <g class="m-whiskers">
      <line x1="70" y1="115" x2="35" y2="105" stroke="#2F2F2F" stroke-width="3"/>
      <line x1="70" y1="120" x2="32" y2="120" stroke="#2F2F2F" stroke-width="3"/>
      <line x1="70" y1="125" x2="35" y2="135" stroke="#2F2F2F" stroke-width="3"/>
      <line x1="130" y1="115" x2="165" y2="105" stroke="#2F2F2F" stroke-width="3"/>
      <line x1="130" y1="120" x2="168" y2="120" stroke="#2F2F2F" stroke-width="3"/>
      <line x1="130" y1="125" x2="165" y2="135" stroke="#2F2F2F" stroke-width="3"/>
    </g>
    <rect x="75" y="130" width="15" height="45" rx="5" fill="white"/>
    <rect x="110" y="130" width="15" height="45" rx="5" fill="white"/>
  </g>
</svg>
